<svg height="511pt" viewBox="0 0 511.99939 511" width="511pt" xmlns="http://www.w3.org/2000/svg"><path d="m495.921875 496.414062c-21.441406 21.441407-76.960937.683594-124.011719-46.359374-10.25-10.246094-19.246094-20.902344-26.832031-31.515626-5.914063-8.273437-10.96875-16.519531-15.085937-24.53125l63.519531-63.519531c8.011719 4.125 16.257812 9.179688 24.535156 15.085938 10.613281 7.59375 21.257813 16.59375 31.503906 26.839843 47.050781 47.039063 67.8125 102.570313 46.371094 124zm0 0" fill="#f7d360"/><path d="m372.175781 351.8125-20.871093 20.871094v-.011719zm0 0" fill="#e58e13"/><path d="m351.59375 288.953125c22.535156-14.109375 42.597656-18.617187 51.492188-9.726563 13.386718 13.386719-3.601563 52.085938-37.933594 86.417969-34.34375 34.34375-73.03125 51.320313-86.417969 37.9375-8.894531-8.894531-4.386719-28.957031 9.71875-51.488281" fill="#f7d360"/><path d="m365.148438 365.640625c-34.339844 34.339844-73.035157 51.320313-86.414063 37.941406-8.894531-8.898437-4.390625-28.964843 9.71875-51.496093l14.316406-14.3125c-5.796875 14.222656-4.738281 28.71875 4.15625 37.605468 13.378907 13.390625 39.457031 9.027344 58.222657-9.738281zm0 0" fill="#e58e13"/><path d="m397.96875 423.984375c-4.199219-4.203125-8.28125-8.375-12.226562-12.5-6.644532-6.945313-6.496094-17.894531.304687-24.691406.042969-.042969.082031-.082031.125-.125 13.632813-13.632813 24.523437-27.949219 31.875-41.09375-8.277344-5.90625-16.523437-10.960938-24.535156-15.085938l-42.199219 42.203125c-.003906-.003906-.003906-.007812-.007812-.007812l-21.316407 21.320312c9.402344 18.296875 23.6875 37.808594 41.925781 56.046875 47.039063 47.039063 102.570313 67.800781 124 46.359375-7.046874 7.046875-50.894531-25.386718-97.945312-72.425781zm0 0" fill="#e58e13"/><path d="m378.113281 193.367188c0 102.308593-82.9375 185.246093-185.242187 185.246093-102.308594 0-185.246094-82.9375-185.246094-185.246093 0-102.308594 82.9375-185.242188 185.246094-185.242188 102.304687 0 185.242187 82.933594 185.242187 185.242188zm0 0" fill="#fc5f61"/><path d="m292.753906 293.257812c-32.054687 32.054688-75.671875 45.472657-117.414062 40.28125-30.105469-3.742187-59.242188-17.171874-82.359375-40.28125-55.164063-55.164062-55.164063-144.609374 0-199.773437 23.117187-23.109375 52.253906-36.539063 82.359375-40.28125 41.742187-5.191406 85.359375 8.226563 117.414062 40.28125 55.171875 55.164063 55.171875 144.609375 0 199.773437zm0 0" fill="#7ce6d6"/><path d="m257.679688 293.257812c-23.109376 23.109376-52.238282 36.539063-82.339844 40.28125-30.105469-3.742187-59.242188-17.171874-82.359375-40.28125-55.164063-55.164062-55.164063-144.609374 0-199.773437 23.117187-23.109375 52.253906-36.539063 82.359375-40.28125 30.101562 3.742187 59.230468 17.171875 82.339844 40.28125 55.171874 55.164063 55.171874 144.609375 0 199.773437zm0 0" fill="#c9fff7"/><path d="m283.621094 145.363281v111.640625l-61.617188-14.925781c-12.058594-2.917969-24.449218 3.425781-29.136718 14.925781-3.914063-9.617187-13.226563-15.625-23.230469-15.625-1.953125 0-3.933594.222656-5.90625.699219l-61.609375 14.925781v-111.640625l61.609375-14.914062c12.066406-2.917969 24.460937 3.417969 29.136719 14.914062 3.921874-9.617187 13.226562-15.625 23.230468-15.625 1.949219 0 3.933594.234375 5.90625.710938zm0 0" fill="#e6e6e6"/><path d="m283.621094 145.363281v111.640625l-61.617188-14.925781c-12.058594-2.917969-24.449218 3.425781-29.136718 14.925781v-111.640625c3.921874-9.617187 13.226562-15.625 23.230468-15.625 1.949219 0 3.933594.234375 5.90625.710938zm0 0" fill="#fff"/><path d="m192.871094 44.484375c-39.769532 0-77.160156 15.484375-105.277344 43.605469-28.121094 28.121094-43.609375 65.511718-43.609375 105.277344 0 39.769531 15.484375 77.160156 43.609375 105.28125 28.117188 28.117187 65.507812 43.605468 105.277344 43.605468 39.765625 0 77.15625-15.484375 105.277344-43.605468 58.046874-58.054688 58.046874-152.507813 0-210.558594-28.121094-28.121094-65.511719-43.605469-105.277344-43.605469zm94.492187 243.378906c-25.238281 25.238281-58.796875 39.140625-94.492187 39.140625-35.699219 0-69.257813-13.902344-94.496094-39.140625-25.242188-25.242187-39.140625-58.800781-39.140625-94.496093 0-35.695313 13.898437-69.253907 39.140625-94.492188 25.238281-25.242188 58.796875-39.144531 94.496094-39.144531 35.691406 0 69.253906 13.902343 94.492187 39.144531 52.105469 52.105469 52.105469 136.882812 0 188.988281zm0 0"/><path d="m223.804688 123.039062c-11.519532-2.789062-23.097657.761719-30.933594 8.703126-7.835938-7.941407-19.414063-11.488282-30.933594-8.703126l-61.609375 14.917969c-3.421875.828125-5.832031 3.890625-5.832031 7.410157v111.632812c0 2.339844 1.074218 4.546875 2.910156 5.992188 1.835938 1.445312 4.238281 1.96875 6.507812 1.417968l61.613282-14.917968c8.464844-2.050782 16.996094 2.316406 20.28125 10.386718 1.171875 2.871094 3.960937 4.746094 7.0625 4.746094 3.101562 0 5.890625-1.875 7.0625-4.746094 3.285156-8.070312 11.816406-12.4375 20.28125-10.386718l61.613281 14.917968c.59375.144532 1.195313.214844 1.792969.214844 1.691406 0 3.355468-.5625 4.714844-1.632812 1.835937-1.445313 2.910156-3.652344 2.910156-5.992188v-111.632812c0-3.519532-2.410156-6.582032-5.832032-7.410157zm-61.867188 111.632813-52.191406 12.636719v-95.941406l55.78125-13.507813c8.027344-1.941406 16.097656 1.886719 19.71875 9.160156v90.640625c-6.886719-3.734375-15.109375-4.972656-23.308594-2.988281zm114.058594 12.636719-52.191406-12.636719c-2.625-.636719-5.253907-.941406-7.839844-.941406-5.488282 0-10.789063 1.378906-15.46875 3.914062v-90.621093c3.617187-7.277344 11.691406-11.109376 19.71875-9.164063l55.78125 13.507813zm0 0"/><path d="m505.558594 441.347656c-9.132813-24.425781-27.109375-50.820312-50.613282-74.328125-16.039062-16.039062-33.488281-29.558593-50.863281-39.46875 1.84375-3.351562 3.488281-6.660156 4.910157-9.90625 8.519531-19.398437 8.332031-34.957031-.515626-43.808593-8.265624-8.261719-22.015624-8.980469-39.160156-2.449219 18.558594-41.898438 21.851563-89.765625 7.785156-135.207031-1.246093-4.023438-5.515624-6.273438-9.539062-5.03125-4.023438 1.246093-6.273438 5.515624-5.027344 9.539062 19.566406 63.214844 2.679688 131.527344-44.074218 178.277344-33.546876 33.546875-78.152344 52.023437-125.59375 52.023437-47.445313 0-92.050782-18.476562-125.597657-52.023437-33.542969-33.546875-52.019531-78.152344-52.019531-125.597656 0-47.441407 18.476562-92.046876 52.023438-125.59375 33.546874-33.550782 78.152343-52.023438 125.597656-52.023438 47.441406 0 92.046875 18.476562 125.59375 52.023438 13.132812 13.128906 24.050781 28.082031 32.453125 44.433593 1.925781 3.746094 6.519531 5.222657 10.265625 3.296875 3.746094-1.925781 5.222656-6.519531 3.300781-10.265625-9.128906-17.765625-20.984375-33.996093-35.234375-48.25-36.429688-36.425781-84.863281-56.488281-136.378906-56.488281-51.519532 0-99.953125 20.0625-136.382813 56.488281-36.425781 36.429688-56.488281 84.863281-56.488281 136.378907 0 51.519531 20.0625 99.953124 56.488281 136.378906 36.429688 36.429687 84.863281 56.492187 136.382813 56.492187 27.304687 0 53.75-5.640625 77.996094-16.363281-6.503907 17.113281-5.777344 30.84375 2.472656 39.097656 4.515625 4.515625 10.777344 6.773438 18.402344 6.773438 7.324218 0 15.90625-2.082032 25.40625-6.253906 3.246093-1.421876 6.554687-3.066407 9.902343-4.914063 9.910157 17.378906 23.433594 34.828125 39.472657 50.863281 5.5625 5.5625 11.367187 10.890625 17.257812 15.839844 1.429688 1.199219 3.167969 1.785156 4.898438 1.785156 2.175781 0 4.335937-.925781 5.84375-2.722656 2.707031-3.222656 2.289062-8.03125-.933594-10.742188-5.554688-4.664062-11.035156-9.691406-16.285156-14.941406-15.238282-15.242187-28.011719-31.75-37.269532-48.105468 10.292969-7.027344 20.675782-15.683594 30.507813-25.515626 9.828125-9.832031 18.484375-20.214843 25.511719-30.503906 16.355468 9.257813 32.867187 22.03125 48.105468 37.269532 21.996094 21.996093 38.730469 46.460937 47.113282 68.882812 7.539062 20.164062 7.265624 36.328125-.746094 44.339844-12 12-41.644532 6.25-73.761719-14.308594-3.546875-2.269531-8.265625-1.234375-10.535156 2.3125s-1.234375 8.261719 2.3125 10.535156c23.621093 15.117188 45.828125 22.871094 63.65625 22.871094 11.984375 0 21.988281-3.503906 29.109375-10.625 12.609375-12.605469 14.117187-34.078125 4.25-60.464844zm-145.800782-81.09375c-34.664062 34.664063-67.949218 45.621094-75.632812 37.933594-4.492188-4.492188-3.242188-19.023438 9.839844-40.5 12.65625-7.820312 24.5-17.15625 35.285156-27.9375 10.785156-10.789062 20.101562-22.632812 27.886719-35.253906 21.507812-13.113282 36.058593-14.375 40.558593-9.875 3.917969 3.917968 2.898438 14.226562-2.664062 26.894531-6.792969 15.476563-19.320312 32.785156-35.273438 48.738281zm0 0"/></svg>